<svg width="81" height="48" viewBox="0 0 81 48" fill="none" xmlns="http://www.w3.org/2000/svg">
    <path fill-rule="evenodd" clip-rule="evenodd" d="M59.1147 43.8049C58.7779 43.0405 58.6174 42.2103 58.7053 41.4015L52.1654 37.6323C51.5343 35.6154 50.8361 33.3951 50.0674 30.9518C49.0077 27.6001 48.0925 24.6891 47.2972 22.1522L80.8141 0C81.0886 4.87949 73.8632 10.4627 53.1588 21.7658C65.2511 16.9767 71.1921 13.9093 79.1497 7.23393C79.282 13.3274 72.569 16.9559 54.3751 23.6223L54.8279 23.4961C64.1239 20.9051 69.474 19.4139 76.9091 15.3001C75.5503 20.6454 70.2172 22.7965 55.8475 25.7349C64.3958 25.3162 67.7973 24.5674 71.9798 22.534C71.2836 26.9632 66.2285 27.7825 55.2713 28.5516C55.7483 28.6362 56.1971 28.7198 56.6275 28.7999L56.6276 28.7999C59.955 29.4196 62.187 29.8352 67.8827 28.9357C65.032 33.449 61.4003 32.4783 55.7365 30.9644L55.7359 30.9642C55.2145 30.8249 54.6759 30.6809 54.119 30.5362C56.7767 32.5456 58.7115 33.3629 63.0814 34.1851C60.948 35.5311 57.7604 35.6194 52.8288 34.8101L59.628 39.3039C60.3599 38.477 61.4129 38.0255 62.5212 37.9047C63.8777 37.7569 65.3891 38.0874 66.7624 38.8803C68.1357 39.6732 69.1777 40.8168 69.7279 42.0655C70.1326 42.984 70.2828 43.9976 70.0532 44.9548C71.6 45.6246 72.7202 45.5327 74.0708 44.9012C74.9811 44.5435 75.3036 45.207 75.0055 45.5499C73.1016 47.1983 71.7778 47.3788 69.2696 46.503C68.536 47.3703 67.4578 47.8418 66.3214 47.9657C64.9649 48.1135 63.4535 47.783 62.0802 46.9901C60.7069 46.1972 59.6649 45.0536 59.1147 43.8049ZM22.3528 41.3532L28.5248 37.796L33.1322 21.7921L0.160083 0C-0.114352 4.87949 7.11109 10.4627 27.8155 21.7658C15.7231 16.9767 9.78218 13.9093 1.82453 7.23393C1.69222 13.3274 8.40528 16.9559 26.5991 23.6223L26.1463 23.4961C16.8504 20.9051 11.5002 19.4139 4.06513 15.3001C5.42393 20.6454 10.757 22.7965 25.1267 25.7349C16.5785 25.3162 13.1769 24.5674 8.99444 22.534C9.69067 26.9632 14.7457 27.7825 25.7029 28.5516C25.226 28.6362 24.7774 28.7197 24.347 28.7999L24.3467 28.7999L24.3467 28.7999C21.0192 29.4196 18.7873 29.8352 13.0915 28.9357C15.9422 33.449 19.5739 32.4783 25.2378 30.9644L25.2383 30.9642C25.7597 30.8249 26.2984 30.6809 26.8552 30.5362C24.1976 32.5456 22.2628 33.3629 17.8928 34.1851C20.0263 35.5311 23.2138 35.6194 28.1455 34.8101L21.4024 39.2668C20.672 38.4635 19.6341 38.0237 18.5425 37.9047C17.186 37.7569 15.6746 38.0874 14.3012 38.8803C12.9279 39.6732 11.886 40.8168 11.3357 42.0655C10.7858 43.3135 10.7059 44.7371 11.4098 45.9562C12.1136 47.1753 13.3865 47.8179 14.7422 47.9657C16.0987 48.1135 17.6101 47.783 18.9834 46.9901C20.3567 46.1972 21.3987 45.0536 21.9489 43.8049C22.2924 43.0253 22.4525 42.1772 22.3528 41.3532ZM67.9912 44.9963C68.3152 44.435 68.3404 43.6781 67.971 42.8397C67.6019 42.002 66.8599 41.1535 65.8025 40.543C64.745 39.9325 63.6392 39.7141 62.7292 39.8133C61.8184 39.9126 61.1755 40.3129 60.8514 40.8741C60.5274 41.4354 60.5022 42.1923 60.8716 43.0307C61.2407 43.8684 61.9827 44.7169 63.0402 45.3274C64.0976 45.9379 65.2034 46.1563 66.1134 46.0571C67.0242 45.9578 67.6672 45.5575 67.9912 44.9963ZM13.0926 42.8396C12.7232 43.678 12.7484 44.435 13.0724 44.9963C13.3965 45.5575 14.0394 45.9578 14.9502 46.0571C15.8602 46.1563 16.9661 45.9379 18.0235 45.3274C19.0809 44.7169 19.8229 43.8684 20.192 43.0307C20.5615 42.1923 20.5363 41.4353 20.2122 40.8741C19.8882 40.3129 19.2452 39.9125 18.3345 39.8133C17.4244 39.7141 16.3186 39.9325 15.2612 40.543C14.2038 41.1535 13.4617 42.002 13.0926 42.8396ZM35.1532 43.8863H34.6252C32.4651 43.8863 31.5531 42.2879 32.5131 38.9134L34.0491 33.4078H44.0333L45.8093 39.4018C46.8653 42.9095 45.9533 43.8863 43.0252 43.8863V45.0407H51.0893L51.0894 45.0406H55.1092V43.8862H54.6292C52.8568 43.8862 51.4722 43.079 50.4224 40.7289C49.6722 38.1598 48.4977 34.4645 46.8173 29.1897C45.5691 25.2913 44.6219 22.2987 43.8849 19.9706L43.8849 19.9705L43.8848 19.97C42.213 14.6885 41.6236 12.8262 41.0572 11.5628L40.6732 11.2964H38.9932L30.9291 38.9578C29.8251 42.6875 28.2411 43.8863 26.0811 43.8863H25.6011V45.0407H35.1532V43.8863ZM43.6492 32.1646H34.4332L38.8972 16.1804L43.6492 32.1646Z" fill="white" />
</svg>