<svg width="85" height="63" fill="none" xmlns="http://www.w3.org/2000/svg">
  <path opacity=".7" fill-rule="evenodd" clip-rule="evenodd" d="M61.354 43.127c-.092.842.075 1.707.426 2.503.573 1.3 1.659 2.492 3.09 3.318 1.43.826 3.004 1.17 4.417 1.016 1.184-.129 2.307-.62 3.071-1.523 2.613.912 3.992.724 5.975-.993.31-.357-.025-1.048-.974-.676-1.407.658-2.573.754-4.185.056.24-.997.083-2.053-.339-3.01-.573-1.3-1.658-2.492-3.089-3.318-1.43-.826-3.004-1.17-4.417-1.016-1.155.126-2.252.596-3.014 1.457l-4.32-2.854c.003.114.004.228.004.343v.553c.002.714.003 1.445-.018 2.2l3.373 1.944Zm-35.32-1.519-2.548 1.468c.104.859-.063 1.742-.42 2.554-.573 1.3-1.659 2.492-3.09 3.318-1.43.826-3.004 1.17-4.417 1.016-1.412-.154-2.738-.823-3.472-2.093-.733-1.27-.65-2.753-.077-4.053.574-1.3 1.659-2.492 3.09-3.318 1.43-.826 3.004-1.17 4.417-1.016 1.137.124 2.219.582 2.98 1.419L26 38.587v.401c-.002.846-.004 1.715.032 2.62Zm.055-4.904c.144-1.4.463-2.77.943-4.074-2.248 1.514-4.287 2.245-8.191 2.98 1.682 1.061 3.994 1.372 7.248 1.094Zm1.168-4.654a16.475 16.475 0 0 1 3.43-5.238 15.982 15.982 0 0 1 4.991-3.475L.37 0c-.286 5.083 7.24 10.899 28.808 22.673C16.58 17.684 10.392 14.489 2.103 7.535c-.138 6.348 6.855 10.127 25.807 17.072l-.472-.132c-9.683-2.699-15.256-4.252-23.001-8.537 1.415 5.568 6.97 7.808 21.939 10.87-8.905-.437-12.448-1.217-16.805-3.335.726 4.614 5.991 5.467 17.405 6.268-.497.088-.964.175-1.412.259-3.467.645-5.792 1.078-11.725.141 2.97 4.702 6.753 3.69 12.653 2.114l.765-.205Zm21.508-8.509a16 16 0 0 1 4.547 3.271 16.452 16.452 0 0 1 3.338 5.016c.554.144 1.09.287 1.611.427 5.9 1.577 9.683 2.588 12.652-2.114-5.933.937-8.258.504-11.724-.141-.448-.084-.916-.17-1.412-.259 11.413-.8 16.679-1.654 17.404-6.268-4.357 2.118-7.9 2.898-16.804 3.334 14.968-3.06 20.523-5.301 21.939-10.87-7.745 4.286-13.318 5.84-23.001 8.538l-.472.132C75.795 17.662 82.788 13.883 82.65 7.535c-8.29 6.954-14.478 10.15-27.074 15.138C77.143 10.899 84.669 5.083 84.384 0L48.765 23.541Zm7.908 8.34.108.261c.58 1.437.956 2.948 1.122 4.488 3.658.395 6.198.122 8.01-1.02-4.5-.847-6.52-1.688-9.24-3.729Zm14.332 12.744c.385.873.359 1.661.021 2.246-.337.585-1.007 1.002-1.956 1.105-.947.103-2.1-.124-3.2-.76-1.102-.636-1.875-1.52-2.26-2.392-.385-.874-.358-1.662-.02-2.247.337-.584 1.006-1.002 1.955-1.105.948-.103 2.1.124 3.201.76 1.102.636 1.875 1.52 2.26 2.393ZM13.82 46.87c-.337-.585-.363-1.373.021-2.246.385-.873 1.158-1.757 2.26-2.393 1.1-.636 2.253-.863 3.2-.76.95.104 1.62.52 1.957 1.105.337.585.363 1.373-.021 2.247-.385.872-1.158 1.756-2.26 2.392-1.1.636-2.253.863-3.2.76-.95-.103-1.62-.52-1.957-1.105Z" fill="#D6BD80"/><path fill-rule="evenodd" clip-rule="evenodd" d="M33.515 30.518A11.994 11.994 0 0 1 42 27h.024a11.994 11.994 0 0 1 11.086 7.415 12.022 12.022 0 0 1 0 9.194c-.371.897-1.838 3.924-3.376 6.048-.962 1.327-1.95 2.692-2.715 3.843-1.991 2.994-4.995 9.5-4.995 9.5l-.012-.02L42 63s-3.004-6.506-4.995-9.5c-.766-1.151-1.754-2.516-2.715-3.843-1.538-2.124-3.005-5.15-3.377-6.048a12.022 12.022 0 0 1 2.602-13.09ZM42 45a6 6 0 1 0 0-12 6 6 0 0 0 0 12Z" fill="#fff"/>
</svg>