<svg width="32" height="32" viewBox="0 0 32 32" fill="none" xmlns="http://www.w3.org/2000/svg">
  <path fill-rule="evenodd" clip-rule="evenodd" d="M7.92005 3.34735C10.0633 1.20408 12.9691 0 16.0002 0C19.0312 0 21.9381 1.20408 24.0814 3.34735C26.2246 5.49063 27.4287 8.39753 27.4287 11.4286C27.4287 11.5562 27.429 11.6845 27.4293 11.8136C27.4359 14.7503 27.4434 18.0898 24.0814 22.9384C20.5716 28 16.0002 32 16.0002 32C16.0002 32 11.4298 28 7.92005 22.9384C4.55804 18.0898 4.56553 14.7503 4.57212 11.8136C4.57241 11.6845 4.5727 11.5562 4.5727 11.4286C4.5727 8.39753 5.77678 5.49063 7.92005 3.34735ZM20.0407 15.4692C18.9691 16.5408 17.5156 17.1429 16.0001 17.1429C14.4846 17.1429 13.0311 16.5408 11.9595 15.4692C10.8879 14.3975 10.2858 12.9441 10.2858 11.4286C10.2858 9.91305 10.8879 8.4596 11.9595 7.38796C13.0311 6.31633 14.4846 5.71429 16.0001 5.71429C17.5156 5.71429 18.9691 6.31633 20.0407 7.38796C21.1124 8.4596 21.7144 9.91305 21.7144 11.4286C21.7144 12.9441 21.1124 14.3975 20.0407 15.4692Z" fill="#D6BD80" />
</svg>
  